<svg xmlns="http://www.w3.org/2000/svg" width="1200" height="320" viewBox="0 0 1200 320">
  <defs>
    <linearGradient id="g" x1="0" y1="0" x2="1" y2="1">
      <stop offset="0" stop-color="#3B82F6"/>
      <stop offset="0.55" stop-color="#7C3AED"/>
      <stop offset="1" stop-color="#EC4899"/>
    </linearGradient>
  </defs>
  <rect width="1200" height="320" fill="#0B1020"/>
  <g transform="translate(60,40)">
    <rect x="0" y="0" width="240" height="240" rx="56" fill="#0B1020" stroke="#22304F" stroke-width="4"/>
    <path d="M40 190 L90 50 L140 190" fill="none" stroke="url(#g)" stroke-width="14" stroke-linecap="round" stroke-linejoin="round"/>
    <path d="M165 50 L205 50 C224 50 238 64 238 83 C238 102 224 116 205 116 L165 116 Z" fill="none" stroke="url(#g)" stroke-width="14" stroke-linejoin="round"/>
    <path d="M165 116 L219 190" fill="none" stroke="url(#g)" stroke-width="14" stroke-linecap="round"/>
    <circle cx="90" cy="50" r="6" fill="#E6F0FF"/>
    <circle cx="140" cy="190" r="6" fill="#E6F0FF"/>
    <circle cx="205" cy="50" r="6" fill="#E6F0FF"/>
    <circle cx="219" cy="190" r="6" fill="#E6F0FF"/>
  </g>
  <g transform="translate(340,120)">
    <text x="0" y="0" fill="#E5E7EB" font-family="Sora, ui-sans-serif, system-ui, -apple-system, Segoe UI, Roboto, Inter, Arial" font-size="64" font-weight="700">Virtual</text>
    <text x="0" y="78" fill="#B6C2D1" font-family="Sora, ui-sans-serif, system-ui, -apple-system, Segoe UI, Roboto, Inter, Arial" font-size="64" font-weight="600">Analyst</text>
    <rect x="0" y="110" width="520" height="4" fill="url(#g)" opacity="0.9"/>
    <text x="0" y="165" fill="#94A3B8" font-family="Inter, ui-sans-serif, system-ui, -apple-system, Segoe UI, Roboto, Arial" font-size="22">Evidence-backed forecasting • Valuation • Risk</text>
  </g>
</svg>
